<?xml version="1.0" standalone="no"?>
<!DOCTYPE svg PUBLIC "-//W3C//DTD SVG 20010904//EN"
 "http://www.w3.org/TR/2001/REC-SVG-20010904/DTD/svg10.dtd">
<svg version="1.0" xmlns="http://www.w3.org/2000/svg"
 width="700.000000pt" height="700.000000pt" viewBox="0 0 700.000000 700.000000"
 preserveAspectRatio="xMidYMid meet">
<metadata>
Created by potrace 1.11, written by Peter Selinger 2001-2013
</metadata>
<g transform="translate(0.000000,700.000000) scale(0.100000,-0.100000)"
fill="#000000" stroke="none">
<path d="M0 3500 l0 -3500 3500 0 3500 0 0 3500 0 3500 -3500 0 -3500 0 0
-3500z m5010 1845 l0 -455 -257 0 -258 0 -775 -827 c-426 -454 -776 -831 -778
-837 -1 -6 351 -476 783 -1044 432 -568 785 -1035 785 -1037 0 -3 -567 -5
-1260 -5 l-1260 0 0 2330 0 2330 1510 0 1510 0 0 -455z m0 -2312 c0 -1796 0
-1837 -19 -1818 -30 32 -1491 1962 -1497 1979 -4 10 245 290 751 845 416 457
759 831 761 831 2 0 4 -827 4 -1837z"/>
</g>
</svg>
